<svg width="46" height="30" viewBox="0 0 46 30" fill="none" xmlns="http://www.w3.org/2000/svg">
<path d="M37.1427 19.9999C37.1427 21.8944 36.1446 22.8227 34.2856 22.8555V22.8571H11.4285V22.8555C9.56943 22.8227 8.57132 21.8944 8.57132 19.9999C8.57132 18.1055 9.56943 17.1772 11.4285 17.1444V17.1428H34.2856V17.1444C36.1446 17.1772 37.1427 18.1055 37.1427 19.9999ZM34.2856 24.2871V24.2855H11.4285V24.2871C9.56943 24.3199 8.57132 25.2484 8.57132 27.1428C8.57132 29.0373 9.56943 29.9656 11.4285 29.9984V30H34.2856V29.9984C36.1445 29.9656 37.1427 29.0373 37.1427 27.1428C37.1427 25.2484 36.1446 24.3199 34.2856 24.2871ZM41.4285 8.57463V8.57305C39.5694 8.60589 38.5712 9.53423 38.5712 11.4286V27.1428C38.5712 29.0373 39.5693 29.9656 41.4285 29.9984V29.9951C44.217 29.8968 45.7141 27.1117 45.7141 21.4284V14.2858C45.7142 10.497 44.217 8.6403 41.4285 8.57463ZM4.28574 8.57305V8.57463C1.49709 8.6403 0 10.4968 0 14.2858V21.4285C0 27.1119 1.49709 29.8968 4.28574 29.9953V29.9986C6.14478 29.9657 7.14274 29.0374 7.14274 27.143V11.4286C7.14274 9.53423 6.14478 8.60589 4.28574 8.57305ZM41.4285 7.1429C41.4285 2.4068 38.9331 0.0860304 34.2856 0.00394635V0H11.4285V0.00394635C6.78094 0.0860304 4.28574 2.4068 4.28574 7.1429V7.14526C7.07423 7.19451 8.57132 8.58694 8.57132 11.4286C8.57132 14.2702 10.0686 15.6628 12.8571 15.712V15.7144H32.857V15.712C35.6456 15.6628 37.1427 14.2702 37.1427 11.4286C37.1427 8.58694 38.6398 7.19451 41.4285 7.14526V7.1429Z" fill="#E42528"/>
</svg>
