<svg width="33" height="27" viewBox="0 0 33 27" fill="none" xmlns="http://www.w3.org/2000/svg">
<path d="M20.85 7.40997H21.85L24.7 4.55997L24.84 3.34997C23.2073 1.90892 21.2343 0.907879 19.1072 0.441399C16.98 -0.0250811 14.7691 0.0584029 12.6833 0.683965C10.5974 1.30953 8.70542 2.45651 7.18608 4.01658C5.66674 5.57664 4.57018 7.49828 4 9.59997C4.3175 9.46983 4.66921 9.44873 5 9.53997L10.7 8.59997C10.7 8.59997 10.99 8.11997 11.14 8.14997C12.3613 6.80863 14.0492 5.98486 15.858 5.8473C17.6669 5.70973 19.4599 6.26877 20.87 7.40997H20.85Z" fill="#EA4335"/>
<path d="M28.7599 9.59986C28.1048 7.1875 26.7598 5.01881 24.8899 3.35986L20.8899 7.35986C21.7236 8.04103 22.3916 8.9026 22.8438 9.8796C23.2959 10.8566 23.5202 11.9235 23.4999 12.9999V13.7099C23.9674 13.7099 24.4304 13.8019 24.8623 13.9809C25.2942 14.1598 25.6866 14.422 26.0172 14.7526C26.3478 15.0831 26.61 15.4756 26.7889 15.9075C26.9678 16.3394 27.0599 16.8024 27.0599 17.2699C27.0599 17.7374 26.9678 18.2003 26.7889 18.6322C26.61 19.0641 26.3478 19.4566 26.0172 19.7872C25.6866 20.1177 25.2942 20.38 24.8623 20.5589C24.4304 20.7378 23.9674 20.8299 23.4999 20.8299H16.3799L15.6699 21.5499V25.8199L16.3799 26.5299H23.4999C25.4882 26.5453 27.4286 25.9205 29.0341 24.7476C30.6397 23.5748 31.8251 21.9164 32.415 20.0176C33.005 18.1188 32.9681 16.0806 32.3098 14.2044C31.6515 12.3283 30.4069 10.7138 28.7599 9.59986V9.59986Z" fill="#4285F4"/>
<path d="M9.24991 26.4902H16.3699V20.7902H9.24991C8.74264 20.7901 8.24133 20.681 7.77991 20.4702L6.77991 20.7802L3.90991 23.6302L3.65991 24.6302C5.26934 25.8455 7.23319 26.499 9.24991 26.4902V26.4902Z" fill="#34A853"/>
<path d="M9.2501 8.00006C7.32092 8.01158 5.44351 8.62536 3.88009 9.75566C2.31667 10.886 1.14532 12.4763 0.529632 14.3047C-0.0860534 16.133 -0.115322 18.108 0.445912 19.9538C1.00715 21.7995 2.13086 23.4239 3.6601 24.6001L7.7901 20.4701C7.26526 20.2329 6.80579 19.872 6.4511 19.4183C6.09641 18.9646 5.8571 18.4315 5.75369 17.865C5.65029 17.2984 5.68588 16.7152 5.85742 16.1655C6.02895 15.6157 6.33131 15.1157 6.73854 14.7085C7.14577 14.3013 7.64573 13.9989 8.19551 13.8274C8.74528 13.6558 9.32847 13.6203 9.89503 13.7237C10.4616 13.8271 10.9946 14.0664 11.4483 14.4211C11.9021 14.7757 12.263 15.2352 12.5001 15.7601L16.6301 11.6301C15.7632 10.4968 14.646 9.57946 13.3657 8.94973C12.0854 8.32 10.6769 7.99497 9.2501 8.00006V8.00006Z" fill="#FBBC05"/>
</svg>
