<svg width="48" height="30" viewBox="0 0 48 30" fill="none" xmlns="http://www.w3.org/2000/svg">
<path d="M0 0H30V30H0V0Z" fill="#D9D9D9"/>
<path d="M8.1846 22.3644C11.7465 22.3644 13.9376 20.6158 13.9376 17.8526V17.8418C13.9376 15.4673 12.5992 14.172 9.40427 13.4704L7.6773 13.0927C5.6481 12.6501 4.70906 11.8514 4.70906 10.5778V10.567C4.70906 9.06666 6.06905 8.07365 8.15222 8.06285C10.1274 8.06285 11.4551 9.0019 11.6925 10.5886L11.7141 10.7397H13.6569L13.6462 10.5778C13.4735 8.03047 11.25 6.27112 8.20618 6.27112C5.00049 6.27112 2.73384 8.06285 2.72304 10.6209V10.6317C2.72304 12.9092 4.1478 14.28 7.19159 14.9492L8.91856 15.3269C11.0557 15.8019 11.9516 16.5682 11.9516 17.939V17.9498C11.9516 19.558 10.5376 20.5726 8.29253 20.5726C6.03667 20.5726 4.52557 19.612 4.29891 18.0469L4.27732 17.8958H2.33447L2.34527 18.0469C2.53955 20.7129 4.817 22.3644 8.1846 22.3644Z" fill="#4C4C4C"/>
<path d="M16.0207 22.1053H17.8988V6.53016H16.0207V22.1053Z" fill="#4C4C4C"/>
<path d="M23.7166 22.3212C25.2169 22.3212 26.5661 21.5117 27.2245 20.2812H27.2677V22.1053H29.1457V14.3447C29.1457 12.0997 27.4835 10.6641 24.8283 10.6641C22.1839 10.6641 20.5756 12.1536 20.4137 13.9993L20.4029 14.1181H22.2163L22.2378 14.0209C22.4537 13.0171 23.3604 12.3263 24.8067 12.3263C26.3718 12.3263 27.2677 13.1574 27.2677 14.5282V15.4673L24.0512 15.6507C21.4715 15.8019 19.982 16.9999 19.982 18.9104V18.932C19.982 20.972 21.4823 22.3212 23.7166 22.3212ZM21.9032 18.932V18.9104C21.9032 17.8634 22.7667 17.1942 24.267 17.1079L27.2677 16.9244V17.8418C27.2677 19.4717 25.9077 20.6913 24.1375 20.6913C22.7883 20.6913 21.9032 20.0114 21.9032 18.932Z" fill="#4C4C4C"/>
<path d="M35.1794 22.3212C35.5463 22.3212 35.9457 22.278 36.1832 22.2456V20.7237C36.0213 20.7345 35.8054 20.7669 35.5787 20.7669C34.5749 20.7669 34.046 20.4323 34.046 19.2342V12.4343H36.1832V10.88H34.046V7.84698H32.1032V10.88H30.4626V12.4343H32.1032V19.245C32.1032 21.3929 33.1178 22.3212 35.1794 22.3212Z" fill="#4C4C4C"/>
<path d="M42.4974 22.3212C44.9476 22.3212 46.7825 20.8533 47.1494 18.9968L47.171 18.8888H45.3253L45.2929 18.986C44.9691 19.9466 43.9653 20.659 42.5406 20.659C40.5438 20.659 39.2701 19.3098 39.2269 16.9999H47.3113V16.3092C47.3113 12.9416 45.4441 10.6641 42.3787 10.6641C39.3133 10.6641 37.3273 13.0495 37.3273 16.525V16.5358C37.3273 20.0653 39.2701 22.3212 42.4974 22.3212ZM42.3679 12.3263C44.0085 12.3263 45.2174 13.3517 45.4009 15.532H39.2593C39.4644 13.4381 40.7381 12.3263 42.3679 12.3263Z" fill="#4C4C4C"/>
</svg>
